{"title":"Sacrifice 2016 Movies HDRip XviD AAC New Source +Sample ~ ☻rDX☻","uid":15969855,"size":740279376,"categoryP":"video","categoryS":"movies","magnet":"?xt=urn:btih:872ba9eb016844037ddf628d47fb25dda55446b0&amp;dn=Sacrifice+2016+Movies+HDRip+XviD+AAC+New+Source+%2BSample+%7E+%E2%98%BBrDX%E2%98%BB&amp;tr=udp%3A%2F%2Ftracker.leechers-paradise.org%3A6969&amp;tr=udp%3A%2F%2Fzer0day.ch%3A1337&amp;tr=udp%3A%2F%2Fopen.demonii.com%3A1337&amp;tr=udp%3A%2F%2Ftracker.coppersurfer.tk%3A6969&amp;tr=udp%3A%2F%2Fexodus.desync.com%3A6969","seeders":1,"leechers":4,"uploader":"basicssom","files":2,"time":1475767161,"description":"----------------------------------------------------------------\r\nSacrifice 2016 English Movies HDRip XviD AAC New Source with Sample ☻rDX☻\r\n\r\nSCREEN SHOTS &amp; POSTER:\r\n  \nhttp://postimage.co.nr/2016/10/business/index.htm  \nhttp://postimage.co.nr/2016/10/business/1.html  \nhttp://postimage.co.nr/2016/10/business/2.html  \nhttp://postimage.co.nr/2016/10/business/3.html  \nhttp://postimage.co.nr/2016/10/business/4.html  \nhttp://postimage.co.nr/2016/10/business/5.html  \nhttp://postimage.co.nr/2016/10/business/6.html  \nhttp://postimage.co.nr/2016/10/business/7.html  \nhttp://postimage.co.nr/2016/10/business/8.html  \nhttp://postimage.co.nr/2016/10/business/9.html  \nhttp://postimage.co.nr/2016/10/business/10.html\r\n\r\nFormat                                   : Matroska\r\nFormat version                           : Version 4 / Version 2\r\nFile size                                : 698 MiB\r\nDuration                                 : 1 h 29 min\r\nOverall bit rate mode                    : Constant\r\nOverall bit rate                         : 1 090 kb/s\r\nMovie name                               : Sacrifice 2016 English Movies HDRip XviD AAC New Source ☻rDX☻\r\n\r\nVideo\r\nID                                       : 2\r\nFormat                                   : AVC\r\nFormat/Info                              : Advanced Video Codec\r\nFormat profile                           :   \r\nFormat settings, CABAC                   : Yes\r\nFormat settings, ReFrames                : 2 frames\r\nFormat settings, GOP                     : M=1, N=12\r\nCodec ID                                 : V_MPEG4/ISO/AVC\r\nDuration                                 : 1 h 29 min\r\nBit rate mode                            : Constant\r\nBit rate                                 : 899 kb/s\r\nWidth                                    : 720 pixels\r\nHeight                                   : 400 pixels\r\nDisplay aspect ratio                     : 16:9\r\nFrame rate mode                          : Constant\r\nFrame rate                               : 25.000 FPS\r\nColor space                              : YUV\r\nChroma subsampling                       : 4:2:0\r\nBit depth                                : 8 bits\r\nScan type                                : Progressive\r\nBits/(Pixel*Frame)                       : 0.125\r\nStream size                              : 561 MiB (80%)\r\nTitle                                    : ☻rDX☻\r\nDefault                                  : Yes\r\nForced                                   : No\r\n\r\nAudio\r\nID                                       : 1\r\nFormat                                   : AC-3\r\nFormat/Info                              : Audio Coding 3\r\nMode extension                           : CM (complete main)\r\nFormat settings, Endianness              : Big\r\nCodec ID                                 : A_AC3\r\nDuration                                 : 1 h 29 min\r\nBit rate mode                            : Constant\r\nBit rate                                 : 192 kb/s\r\nChannel(s)                               : 2 channels\r\nChannel positions                        : Front: L R\r\nSampling rate                            : 48.0 kHz\r\nFrame rate                               : 31.250 FPS (1536 spf)\r\nCompression mode                         : Lossy\r\nStream size                              : 123 MiB (18%)\r\nTitle                                    : ☻rDX☻\r\nDefault                                  : Yes\r\nForced                                   : No\r\n\r\nIMDB \nhttp://www.imdb.com/title/tt2842732/","torrent":{"xt":"urn:btih:872ba9eb016844037ddf628d47fb25dda55446b0","amp;dn":"Sacrifice+2016+Movies+HDRip+XviD+AAC+New+Source+%2BSample+%7E+%E2%98%BBrDX%E2%98%BB","amp;tr":["udp%3A%2F%2Ftracker.leechers-paradise.org%3A6969","udp%3A%2F%2Fzer0day.ch%3A1337","udp%3A%2F%2Fopen.demonii.com%3A1337","udp%3A%2F%2Ftracker.coppersurfer.tk%3A6969","udp%3A%2F%2Fexodus.desync.com%3A6969"],"infoHash":"872ba9eb016844037ddf628d47fb25dda55446b0","infoHashBuffer":{"type":"Buffer","data":[135,43,169,235,1,104,68,3,125,223,98,141,71,251,37,221,165,84,70,176]},"announce":[],"urlList":[]}}